<svg version="1.1" id="Layer_1" xmlns="http://www.w3.org/2000/svg" xmlns:xlink="http://www.w3.org/1999/xlink" x="0px" y="0px"
	 width="100%" viewBox="0 0 1200 1200" enable-background="new 0 0 1200 1200" xml:space="preserve">
<path fill="#171717" opacity="1.000000" stroke="none" 
	d="
M1.000000,1200.000000 
	C1.000000,800.377991 1.000000,400.755951 1.000000,1.066964 
	C400.910675,1.066964 800.821350,1.066964 1201.000000,1.066964 
	C1201.000000,400.365997 1201.000000,799.732056 1200.540649,1199.569580 
	C801.386902,1200.043091 402.692444,1200.045166 3.998032,1200.045532 
	C2.998688,1200.045532 1.999344,1200.015869 1.000000,1200.000000 
M788.372498,307.188660 
	C711.122559,258.970642 627.453979,242.580826 537.981567,258.599426 
	C457.926727,272.931946 390.783661,311.424805 337.644409,372.889404 
	C274.522705,445.900482 246.628571,531.234253 252.852661,627.570435 
	C255.865234,674.198914 267.622681,718.704590 289.637024,759.862610 
	C348.675690,870.241211 440.383850,934.271973 564.976257,949.020142 
	C634.292297,957.225159 700.369263,944.074219 762.268311,911.758057 
	C893.115173,843.445984 966.763733,702.693176 946.966492,556.113770 
	C932.562195,449.464508 878.523254,366.985565 788.372498,307.188660 
z"/>
<path fill="#888888" opacity="1.000000" stroke="none" 
	d="
M1.000000,1200.500000 
	C1.999344,1200.015869 2.998688,1200.045532 3.998032,1200.045532 
	C402.692444,1200.045166 801.386902,1200.043091 1200.540649,1200.020508 
	C1200.833496,1200.333374 1200.684570,1200.943848 1200.497803,1200.955444 
	C1199.170288,1201.038818 1197.835083,1201.000000 1196.502319,1201.000000 
	C798.001526,1201.000000 399.500763,1201.000000 1.000000,1200.500000 
z"/>
<path fill="#F8F8F8" opacity="1.000000" stroke="none" 
	d="
M788.670410,307.393616 
	C878.523254,366.985565 932.562195,449.464508 946.966492,556.113770 
	C966.763733,702.693176 893.115173,843.445984 762.268311,911.758057 
	C700.369263,944.074219 634.292297,957.225159 564.976257,949.020142 
	C440.383850,934.271973 348.675690,870.241211 289.637024,759.862610 
	C267.622681,718.704590 255.865234,674.198914 252.852661,627.570435 
	C246.628571,531.234253 274.522705,445.900482 337.644409,372.889404 
	C390.783661,311.424805 457.926727,272.931946 537.981567,258.599426 
	C627.453979,242.580826 711.122559,258.970642 788.670410,307.393616 
M362.086395,365.587463 
	C287.909271,443.045593 256.125275,535.266968 267.357605,641.793030 
	C273.208374,697.280762 293.331146,747.802673 324.994049,793.803101 
	C397.914398,899.742920 529.257751,955.454346 656.020203,933.601685 
	C738.924500,919.309814 807.837585,879.917053 860.933533,814.722290 
	C923.113464,738.373657 947.045776,650.429016 933.455872,553.082153 
	C923.110657,478.976654 890.704651,414.982819 836.894043,362.898010 
	C757.366394,285.921051 661.822388,254.822876 552.309448,269.570770 
	C478.485260,279.512451 415.410156,312.560638 362.086395,365.587463 
z"/>
<path fill="#181818" opacity="1.000000" stroke="none" 
	d="
M362.338440,365.344360 
	C415.410156,312.560638 478.485260,279.512451 552.309448,269.570770 
	C661.822388,254.822876 757.366394,285.921051 836.894043,362.898010 
	C890.704651,414.982819 923.110657,478.976654 933.455872,553.082153 
	C947.045776,650.429016 923.113464,738.373657 860.933533,814.722290 
	C807.837585,879.917053 738.924500,919.309814 656.020203,933.601685 
	C529.257751,955.454346 397.914398,899.742920 324.994049,793.803101 
	C293.331146,747.802673 273.208374,697.280762 267.357605,641.793030 
	C256.125275,535.266968 287.909271,443.045593 362.338440,365.344360 
M566.306335,491.655579 
	C565.839722,497.943268 565.373169,504.230957 564.862732,511.110596 
	C573.564636,511.110596 581.294128,511.110596 589.384155,511.110596 
	C589.384155,527.749512 589.384155,543.842529 589.384155,560.022949 
	C596.369141,560.022949 602.962036,560.022949 610.142578,560.022949 
	C610.142578,543.604675 610.142578,527.404724 610.142578,510.794220 
	C618.312805,510.794220 625.898132,510.794220 634.281860,510.794220 
	C633.804199,503.978973 633.359192,497.630402 632.767700,490.904663 
	C632.496094,491.009979 632.224487,491.115295 631.147949,491.513855 
	C629.452637,491.414062 627.757263,491.314301 625.519775,490.551147 
	C624.727539,490.369873 623.935608,490.031891 623.143005,490.030457 
	C605.588867,489.998260 588.034485,489.979675 570.480652,490.053772 
	C569.297485,490.058777 568.117554,490.816711 566.306335,491.655579 
M429.833038,490.857880 
	C429.538666,490.985077 429.244324,491.112274 428.254364,491.531067 
	C427.522095,491.421417 426.789856,491.311768 425.513947,490.541534 
	C424.886322,490.367340 424.258942,490.041962 423.631012,490.040863 
	C404.915283,490.007782 386.199402,489.984619 367.483917,490.053253 
	C366.299530,490.057617 365.117920,490.816681 363.371552,491.686859 
	C363.060669,498.032623 362.749756,504.378387 362.418396,511.141571 
	C370.865204,511.141571 378.458771,511.141571 386.436707,511.141571 
	C386.436707,527.618225 386.436707,543.696106 386.436707,559.903137 
	C393.527466,559.903137 400.213409,559.903137 407.272827,559.903137 
	C407.272827,543.481873 407.272827,527.416321 407.272827,510.830505 
	C415.357941,510.830505 423.077271,510.830505 431.504639,510.830505 
	C430.992310,503.920227 430.521698,497.572266 429.833038,490.857880 
M462.497070,516.152405 
	C462.497070,530.737122 462.497070,545.321838 462.497070,560.023315 
	C468.605560,560.023315 475.198792,560.023315 482.197327,560.023315 
	C482.197327,552.848877 482.132111,545.895691 482.217468,538.944336 
	C482.288879,533.132202 482.071106,527.260864 482.827972,521.527466 
	C483.704590,514.886902 489.431824,510.865082 496.457886,510.988922 
	C503.456665,511.112274 508.826935,515.465637 509.820435,522.080811 
	C510.188751,524.533447 510.100311,527.064392 510.107178,529.559937 
	C510.134949,539.670654 510.118713,549.781616 510.118713,560.029236 
	C517.232300,560.029236 523.823547,560.029236 530.679016,560.029236 
	C530.770508,558.532593 530.932922,557.240967 530.915222,555.951904 
	C530.748413,543.804810 531.383606,531.573730 530.161926,519.531738 
	C528.442383,502.582275 514.948242,491.126801 497.522980,490.202515 
	C481.439697,489.349426 467.040771,499.772217 462.497070,516.152405 
M655.823242,625.158264 
	C655.060120,628.520447 654.296997,631.882629 653.462524,635.559082 
	C660.597107,635.559082 667.187805,635.559082 674.122131,635.559082 
	C676.192322,625.226807 678.235413,615.029663 680.223022,605.109253 
	C689.979858,605.109253 699.069092,605.109253 708.292236,605.109253 
	C710.355408,615.438293 712.363281,625.490723 714.362732,635.500610 
	C721.437439,635.500610 728.033325,635.500610 735.057312,635.500610 
	C730.306152,614.244934 725.632568,593.336365 720.989563,572.564575 
	C714.516418,572.564575 708.423523,572.564575 702.112549,572.564575 
	C702.822937,576.856628 703.482056,580.838989 704.157654,584.920898 
	C697.123230,584.920898 690.682190,584.920898 684.054016,584.920898 
	C684.782959,580.658569 685.465332,576.668640 686.172607,572.533325 
	C679.601562,572.533325 673.664246,572.533325 667.502869,572.533325 
	C663.617065,589.938171 659.777527,607.135864 655.823242,625.158264 
M510.116638,591.493042 
	C510.063049,595.653015 510.175018,599.823364 509.915802,603.970459 
	C509.557770,609.697449 506.522003,613.529663 501.051605,615.392456 
	C491.302887,618.712219 482.426697,612.473389 482.230743,601.920837 
	C482.049622,592.169250 482.192139,582.411621 482.192139,572.568970 
	C475.012970,572.568970 468.452698,572.568970 462.086365,572.568970 
	C462.086365,584.972351 461.130524,597.175232 462.322205,609.164673 
	C463.901550,625.054443 478.945984,636.800903 495.767548,636.978394 
	C512.421509,637.154175 527.941162,625.929382 529.692383,610.445374 
	C531.096924,598.026794 529.976318,585.322510 529.976318,572.657715 
	C523.725464,572.657715 517.024780,572.657715 510.116608,572.657715 
	C510.116608,578.857483 510.116608,584.676697 510.116638,591.493042 
M779.868530,572.285645 
	C778.482971,572.402283 777.097412,572.518921 775.951782,572.615356 
	C775.951782,594.007507 775.951782,614.776672 775.951782,635.520264 
	C796.396912,635.520264 816.510986,635.520264 836.744385,635.520264 
	C836.744385,628.587708 836.744385,621.902222 836.744385,614.846313 
	C823.101135,614.846313 809.842957,614.846313 796.127563,614.846313 
	C796.127563,600.559692 796.127563,586.645325 796.127563,572.284302 
	C790.713745,572.284302 785.753723,572.284302 779.868530,572.285645 
M713.499756,538.907959 
	C709.974731,523.186401 706.449646,507.464813 702.881226,491.549774 
	C698.248535,491.549774 693.924438,491.712799 689.619812,491.494049 
	C686.611389,491.341187 685.327087,492.177582 684.662720,495.390808 
	C681.598511,510.211548 678.175476,524.958130 674.882874,539.731689 
	C673.388062,546.438599 671.897522,553.146484 670.358582,560.062866 
	C676.882874,560.062866 682.668030,560.062866 688.695251,560.062866 
	C690.387695,551.593506 692.052429,543.262756 693.717163,534.931946 
	C696.114075,542.437317 697.479126,549.869568 699.082825,557.250000 
	C699.326172,558.370117 700.638245,560.063721 701.523682,560.106995 
	C706.963928,560.372620 712.423645,560.240173 718.193970,560.240173 
	C716.621460,553.017029 715.173645,546.366333 713.499756,538.907959 
M775.649658,517.499817 
	C775.649658,531.603577 775.649658,545.707275 775.649658,559.985229 
	C782.678772,559.985229 789.233887,559.985229 795.944824,559.985229 
	C795.944824,537.170349 795.944824,514.607849 795.944824,491.857788 
	C789.162415,491.857788 782.613220,491.857788 775.649658,491.857788 
	C775.649658,500.255341 775.649658,508.377533 775.649658,517.499817 
M407.098633,604.500000 
	C407.098633,593.904053 407.098633,583.308167 407.098633,572.502808 
	C400.034424,572.502808 393.471619,572.502808 386.635468,572.502808 
	C386.635468,593.593933 386.635468,614.442688 386.635468,635.533203 
	C393.492065,635.533203 400.055054,635.533203 407.098633,635.533203 
	C407.098633,625.365540 407.098633,615.432739 407.098633,604.500000 
M600.475342,635.767944 
	C603.575500,635.767944 606.675659,635.767944 609.771423,635.767944 
	C609.771423,614.300415 609.771423,593.547424 609.771423,572.629883 
	C602.831360,572.629883 596.125366,572.629883 589.419067,572.629883 
	C589.419067,593.749756 589.419067,614.497131 589.419067,635.769409 
	C592.931641,635.769409 596.218445,635.769409 600.475342,635.767944 
M657.876404,685.969482 
	C656.074280,673.812927 647.221008,671.367981 630.143188,673.689453 
	C630.143188,693.477356 630.143188,713.251160 630.143188,733.158508 
	C635.521240,733.158508 640.675537,733.416626 645.790955,733.081482 
	C650.350403,732.782654 653.986694,730.526428 656.109497,726.247925 
	C659.791016,718.827393 658.337219,707.624634 652.696533,701.374817 
	C658.520386,698.024109 658.050903,692.375488 657.876404,685.969482 
M536.074768,706.498779 
	C536.071899,699.832703 536.200928,693.163330 536.032227,686.501465 
	C535.829956,678.514160 529.876221,672.777405 521.934814,672.620911 
	C513.777832,672.460266 507.324524,678.218018 507.169220,686.335205 
	C506.952484,697.663269 506.954651,709.001648 507.168640,720.329834 
	C507.317688,728.220337 513.577454,733.925781 521.514587,733.965271 
	C529.692139,734.005981 535.822083,728.169495 536.048584,719.996155 
	C536.163940,715.832947 536.072632,711.664124 536.074768,706.498779 
M463.295380,732.018860 
	C468.263611,729.185303 470.383423,724.816895 470.355652,719.198792 
	C470.303101,708.557434 470.381744,697.915100 470.259796,687.274841 
	C470.235657,685.166748 469.910767,682.918762 469.111450,680.989319 
	C466.506256,674.700684 459.718109,671.528748 452.603943,672.979309 
	C445.925232,674.341125 441.503052,679.799316 441.372803,687.478882 
	C441.200867,697.618774 441.267609,707.764526 441.360352,717.906555 
	C441.476624,730.621338 450.536346,736.743530 463.295380,732.018860 
M696.794006,706.104858 
	C694.800049,715.074646 692.806091,724.044495 690.786682,733.129028 
	C694.096680,733.129028 696.701599,733.129028 699.423584,733.129028 
	C699.968872,730.470093 700.716614,728.061768 700.908325,725.610046 
	C701.225403,721.553284 702.913879,720.353577 707.167480,720.164124 
	C712.531250,719.925110 714.685791,721.695251 714.926453,726.814941 
	C715.025818,728.928284 715.738708,731.012756 716.152039,733.011414 
	C719.116943,733.011414 721.829224,733.011414 724.813477,733.011414 
	C720.308777,712.850952 715.901306,693.125671 711.457092,673.235718 
	C708.928406,673.235718 706.657410,673.235718 704.118713,673.235718 
	C701.729980,683.937317 699.347778,694.609558 696.794006,706.104858 
M389.858185,727.283142 
	C389.858185,720.862915 389.858185,714.442688 389.858185,707.621033 
	C395.057709,707.621033 399.643860,707.621033 404.384949,707.621033 
	C404.384949,704.807678 404.384949,702.418579 404.384949,699.628662 
	C399.503235,699.628662 394.909088,699.628662 390.117615,699.628662 
	C390.117615,693.325562 390.117615,687.430054 390.117615,681.054382 
	C395.808289,681.054382 401.208313,681.054382 406.508362,681.054382 
	C406.508362,678.150085 406.508362,675.736328 406.508362,673.380737 
	C397.829559,673.380737 389.461548,673.380737 381.215973,673.380737 
	C381.215973,693.497559 381.215973,713.230713 381.215973,733.051880 
	C384.190399,733.051880 386.923248,733.051880 389.858185,733.051880 
	C389.858185,731.200867 389.858185,729.712036 389.858185,727.283142 
M568.057983,673.654297 
	C568.057983,676.101013 568.057983,678.547791 568.057983,681.465698 
	C571.459595,681.465698 574.538452,681.465698 578.067993,681.465698 
	C578.067993,698.994751 578.067993,716.052368 578.067993,732.964478 
	C581.254272,732.964478 583.957397,732.964478 586.929321,732.964478 
	C586.929321,715.568542 586.929321,698.611877 586.929321,681.174438 
	C590.297119,681.174438 593.378784,681.174438 596.460571,681.174438 
	C596.460571,678.255981 596.460571,675.827271 596.460571,673.093445 
	C587.072144,673.093445 577.946411,673.093445 568.057983,673.654297 
M758.659790,696.512329 
	C758.659790,708.717407 758.659790,720.922424 758.659790,733.101562 
	C767.665100,733.101562 775.915527,733.101562 784.210938,733.101562 
	C784.210938,730.250305 784.210938,727.686401 784.210938,724.677124 
	C778.505554,724.677124 773.098511,724.677124 767.159302,724.677124 
	C767.159302,707.222839 767.159302,690.211548 767.159302,673.323120 
	C764.032166,673.323120 761.469971,673.323120 758.659729,673.323120 
	C758.659729,680.923523 758.659729,688.221008 758.659790,696.512329 
M833.497009,733.354858 
	C837.406372,733.354858 841.315735,733.354858 845.139038,733.354858 
	C845.139038,730.148499 845.139038,727.720825 845.139038,724.839478 
	C839.505615,724.839478 834.098083,724.839478 828.194580,724.839478 
	C828.194580,707.370667 828.194580,690.358337 828.194580,673.248291 
	C825.090088,673.248291 822.504639,673.248291 819.532654,673.248291 
	C819.532654,683.404907 819.532654,693.338684 819.532654,703.272461 
	C819.532654,713.176147 819.532654,723.079834 819.532654,733.354919 
	C824.251709,733.354919 828.375305,733.354919 833.497009,733.354858 
z"/>
<path fill="#FBFBFB" opacity="1.000000" stroke="none" 
	d="
M462.626831,515.760376 
	C467.040771,499.772217 481.439697,489.349426 497.522980,490.202515 
	C514.948242,491.126801 528.442383,502.582275 530.161926,519.531738 
	C531.383606,531.573730 530.748413,543.804810 530.915222,555.951904 
	C530.932922,557.240967 530.770508,558.532593 530.679016,560.029236 
	C523.823547,560.029236 517.232300,560.029236 510.118713,560.029236 
	C510.118713,549.781616 510.134949,539.670654 510.107178,529.559937 
	C510.100311,527.064392 510.188751,524.533447 509.820435,522.080811 
	C508.826935,515.465637 503.456665,511.112274 496.457886,510.988922 
	C489.431824,510.865082 483.704590,514.886902 482.827972,521.527466 
	C482.071106,527.260864 482.288879,533.132202 482.217468,538.944336 
	C482.132111,545.895691 482.197327,552.848877 482.197327,560.023315 
	C475.198792,560.023315 468.605560,560.023315 462.497070,560.023315 
	C462.497070,545.321838 462.497070,530.737122 462.626831,515.760376 
z"/>
<path fill="#F8F8F8" opacity="1.000000" stroke="none" 
	d="
M655.880615,624.745911 
	C659.777527,607.135864 663.617065,589.938171 667.502869,572.533325 
	C673.664246,572.533325 679.601562,572.533325 686.172607,572.533325 
	C685.465332,576.668640 684.782959,580.658569 684.054016,584.920898 
	C690.682190,584.920898 697.123230,584.920898 704.157654,584.920898 
	C703.482056,580.838989 702.822937,576.856628 702.112549,572.564575 
	C708.423523,572.564575 714.516418,572.564575 720.989563,572.564575 
	C725.632568,593.336365 730.306152,614.244934 735.057312,635.500610 
	C728.033325,635.500610 721.437439,635.500610 714.362732,635.500610 
	C712.363281,625.490723 710.355408,615.438293 708.292236,605.109253 
	C699.069092,605.109253 689.979858,605.109253 680.223022,605.109253 
	C678.235413,615.029663 676.192322,625.226807 674.122131,635.559082 
	C667.187805,635.559082 660.597107,635.559082 653.462524,635.559082 
	C654.296997,631.882629 655.060120,628.520447 655.880615,624.745911 
z"/>
<path fill="#FAFAFA" opacity="1.000000" stroke="none" 
	d="
M510.116638,590.994446 
	C510.116608,584.676697 510.116608,578.857483 510.116608,572.657715 
	C517.024780,572.657715 523.725464,572.657715 529.976318,572.657715 
	C529.976318,585.322510 531.096924,598.026794 529.692383,610.445374 
	C527.941162,625.929382 512.421509,637.154175 495.767548,636.978394 
	C478.945984,636.800903 463.901550,625.054443 462.322205,609.164673 
	C461.130524,597.175232 462.086365,584.972351 462.086365,572.568970 
	C468.452698,572.568970 475.012970,572.568970 482.192139,572.568970 
	C482.192139,582.411621 482.049622,592.169250 482.230743,601.920837 
	C482.426697,612.473389 491.302887,618.712219 501.051605,615.392456 
	C506.522003,613.529663 509.557770,609.697449 509.915802,603.970459 
	C510.175018,599.823364 510.063049,595.653015 510.116638,590.994446 
z"/>
<path fill="#FCFCFC" opacity="1.000000" stroke="none" 
	d="
M426.057587,491.202118 
	C426.789856,491.311768 427.522095,491.421417 428.878967,491.493103 
	C429.686066,491.378204 429.868561,491.301270 430.051056,491.224304 
	C430.521698,497.572266 430.992310,503.920227 431.504639,510.830505 
	C423.077271,510.830505 415.357941,510.830505 407.272827,510.830505 
	C407.272827,527.416321 407.272827,543.481873 407.272827,559.903137 
	C400.213409,559.903137 393.527466,559.903137 386.436707,559.903137 
	C386.436707,543.696106 386.436707,527.618225 386.436707,511.141571 
	C378.458771,511.141571 370.865204,511.141571 362.418396,511.141571 
	C362.749756,504.378387 363.060669,498.032623 364.112274,491.581390 
	C385.254517,491.384644 405.656067,491.293396 426.057587,491.202118 
z"/>
<path fill="#FBFBFB" opacity="1.000000" stroke="none" 
	d="
M626.061951,491.214539 
	C627.757263,491.314301 629.452637,491.414062 631.784912,491.473877 
	C632.586060,491.383179 632.750122,491.332489 632.914185,491.281830 
	C633.359192,497.630402 633.804199,503.978973 634.281860,510.794220 
	C625.898132,510.794220 618.312805,510.794220 610.142578,510.794220 
	C610.142578,527.404724 610.142578,543.604675 610.142578,560.022949 
	C602.962036,560.022949 596.369141,560.022949 589.384155,560.022949 
	C589.384155,543.842529 589.384155,527.749512 589.384155,511.110596 
	C581.294128,511.110596 573.564636,511.110596 564.862732,511.110596 
	C565.373169,504.230957 565.839722,497.943268 567.081543,491.558960 
	C587.258484,491.379700 606.660217,491.297119 626.061951,491.214539 
z"/>
<path fill="#FBFBFB" opacity="1.000000" stroke="none" 
	d="
M780.331116,572.284973 
	C785.753723,572.284302 790.713745,572.284302 796.127563,572.284302 
	C796.127563,586.645325 796.127563,600.559692 796.127563,614.846313 
	C809.842957,614.846313 823.101135,614.846313 836.744385,614.846313 
	C836.744385,621.902222 836.744385,628.587708 836.744385,635.520264 
	C816.510986,635.520264 796.396912,635.520264 775.951782,635.520264 
	C775.951782,614.776672 775.951782,594.007507 775.951782,572.615356 
	C777.097412,572.518921 778.482971,572.402283 780.331116,572.284973 
z"/>
<path fill="#FBFBFB" opacity="1.000000" stroke="none" 
	d="
M713.612793,539.311829 
	C715.173645,546.366333 716.621460,553.017029 718.193970,560.240173 
	C712.423645,560.240173 706.963928,560.372620 701.523682,560.106995 
	C700.638245,560.063721 699.326172,558.370117 699.082825,557.250000 
	C697.479126,549.869568 696.114075,542.437317 693.717163,534.931946 
	C692.052429,543.262756 690.387695,551.593506 688.695251,560.062866 
	C682.668030,560.062866 676.882874,560.062866 670.358582,560.062866 
	C671.897522,553.146484 673.388062,546.438599 674.882874,539.731689 
	C678.175476,524.958130 681.598511,510.211548 684.662720,495.390808 
	C685.327087,492.177582 686.611389,491.341187 689.619812,491.494049 
	C693.924438,491.712799 698.248535,491.549774 702.881226,491.549774 
	C706.449646,507.464813 709.974731,523.186401 713.612793,539.311829 
z"/>
<path fill="#FFFFFF" opacity="1.000000" stroke="none" 
	d="
M775.649658,516.999756 
	C775.649658,508.377533 775.649658,500.255341 775.649658,491.857788 
	C782.613220,491.857788 789.162415,491.857788 795.944824,491.857788 
	C795.944824,514.607849 795.944824,537.170349 795.944824,559.985229 
	C789.233887,559.985229 782.678772,559.985229 775.649658,559.985229 
	C775.649658,545.707275 775.649658,531.603577 775.649658,516.999756 
z"/>
<path fill="#F8F8F8" opacity="1.000000" stroke="none" 
	d="
M407.098633,605.000000 
	C407.098633,615.432739 407.098633,625.365540 407.098633,635.533203 
	C400.055054,635.533203 393.492065,635.533203 386.635468,635.533203 
	C386.635468,614.442688 386.635468,593.593933 386.635468,572.502808 
	C393.471619,572.502808 400.034424,572.502808 407.098633,572.502808 
	C407.098633,583.308167 407.098633,593.904053 407.098633,605.000000 
z"/>
<path fill="#F8F8F8" opacity="1.000000" stroke="none" 
	d="
M599.990295,635.768677 
	C596.218445,635.769409 592.931641,635.769409 589.419067,635.769409 
	C589.419067,614.497131 589.419067,593.749756 589.419067,572.629883 
	C596.125366,572.629883 602.831360,572.629883 609.771423,572.629883 
	C609.771423,593.547424 609.771423,614.300415 609.771423,635.767944 
	C606.675659,635.767944 603.575500,635.767944 599.990295,635.768677 
z"/>
<path fill="#F8F8F8" opacity="1.000000" stroke="none" 
	d="
M657.900635,686.406738 
	C658.050903,692.375488 658.520386,698.024109 652.696533,701.374817 
	C658.337219,707.624634 659.791016,718.827393 656.109497,726.247925 
	C653.986694,730.526428 650.350403,732.782654 645.790955,733.081482 
	C640.675537,733.416626 635.521240,733.158508 630.143188,733.158508 
	C630.143188,713.251160 630.143188,693.477356 630.143188,673.689453 
	C647.221008,671.367981 656.074280,673.812927 657.900635,686.406738 
M648.094421,707.484863 
	C645.265259,706.599609 642.436096,705.714355 639.122314,704.677429 
	C639.122314,712.102417 639.122314,718.432556 639.122314,724.751953 
	C647.909485,724.954224 650.070984,722.851440 649.756958,714.374695 
	C649.679260,712.277466 648.997498,710.202759 648.094421,707.484863 
M643.922058,697.836487 
	C648.909058,696.075134 650.731079,692.549011 649.546265,686.952148 
	C648.524231,682.124268 646.206848,680.946350 639.021606,681.744263 
	C639.021606,686.954956 639.021606,692.191101 639.021606,697.874634 
	C640.517761,697.874634 641.793579,697.874634 643.922058,697.836487 
z"/>
<path fill="#F3F3F3" opacity="1.000000" stroke="none" 
	d="
M536.074707,706.998291 
	C536.072632,711.664124 536.163940,715.832947 536.048584,719.996155 
	C535.822083,728.169495 529.692139,734.005981 521.514587,733.965271 
	C513.577454,733.925781 507.317688,728.220337 507.168640,720.329834 
	C506.954651,709.001648 506.952484,697.663269 507.169220,686.335205 
	C507.324524,678.218018 513.777832,672.460266 521.934814,672.620911 
	C529.876221,672.777405 535.829956,678.514160 536.032227,686.501465 
	C536.200928,693.163330 536.071899,699.832703 536.074707,706.998291 
M515.978577,720.830627 
	C516.966980,724.364563 519.496094,725.559143 522.849731,725.001404 
	C526.554932,724.385193 527.394653,721.561890 527.399902,718.311890 
	C527.415894,708.337891 527.399963,698.363892 527.434448,688.390015 
	C527.448425,684.352661 526.003418,681.380859 521.548767,681.434753 
	C517.094421,681.488586 515.777588,684.460388 515.815613,688.529663 
	C515.913513,699.001587 515.872864,709.474731 515.978577,720.830627 
z"/>
<path fill="#F7F7F7" opacity="1.000000" stroke="none" 
	d="
M462.952026,732.193604 
	C450.536346,736.743530 441.476624,730.621338 441.360352,717.906555 
	C441.267609,707.764526 441.200867,697.618774 441.372803,687.478882 
	C441.503052,679.799316 445.925232,674.341125 452.603943,672.979309 
	C459.718109,671.528748 466.506256,674.700684 469.111450,680.989319 
	C469.910767,682.918762 470.235657,685.166748 470.259796,687.274841 
	C470.381744,697.915100 470.303101,708.557434 470.355652,719.198792 
	C470.383423,724.816895 468.263611,729.185303 462.952026,732.193604 
M458.016327,724.903015 
	C459.277435,722.623169 461.530182,720.384521 461.627045,718.056213 
	C462.033783,708.281860 461.820831,698.480469 461.782623,688.689270 
	C461.763550,683.801514 459.562836,681.044983 455.763672,681.333923 
	C451.364563,681.668640 450.034332,684.620483 450.045227,688.592590 
	C450.072479,698.549927 450.037018,708.507507 450.059357,718.464844 
	C450.069977,723.194824 452.334961,725.561462 458.016327,724.903015 
z"/>
<path fill="#F5F5F5" opacity="1.000000" stroke="none" 
	d="
M696.879822,705.693359 
	C699.347778,694.609558 701.729980,683.937317 704.118713,673.235718 
	C706.657410,673.235718 708.928406,673.235718 711.457092,673.235718 
	C715.901306,693.125671 720.308777,712.850952 724.813477,733.011414 
	C721.829224,733.011414 719.116943,733.011414 716.152039,733.011414 
	C715.738708,731.012756 715.025818,728.928284 714.926453,726.814941 
	C714.685791,721.695251 712.531250,719.925110 707.167480,720.164124 
	C702.913879,720.353577 701.225403,721.553284 700.908325,725.610046 
	C700.716614,728.061768 699.968872,730.470093 699.423584,733.129028 
	C696.701599,733.129028 694.096680,733.129028 690.786682,733.129028 
	C692.806091,724.044495 694.800049,715.074646 696.879822,705.693359 
M710.354736,704.030029 
	C709.614319,700.215027 708.873901,696.400085 708.133484,692.585083 
	C707.832520,692.653320 707.531494,692.721558 707.230530,692.789795 
	C706.043457,699.074829 704.856445,705.359924 703.616272,711.926270 
	C706.534973,711.926270 709.079651,711.926270 711.879333,711.926270 
	C711.395874,709.357178 710.972656,707.108154 710.354736,704.030029 
z"/>
<path fill="#F6F6F6" opacity="1.000000" stroke="none" 
	d="
M389.858185,727.753174 
	C389.858185,729.712036 389.858185,731.200867 389.858185,733.051880 
	C386.923248,733.051880 384.190399,733.051880 381.215973,733.051880 
	C381.215973,713.230713 381.215973,693.497559 381.215973,673.380737 
	C389.461548,673.380737 397.829559,673.380737 406.508362,673.380737 
	C406.508362,675.736328 406.508362,678.150085 406.508362,681.054382 
	C401.208313,681.054382 395.808289,681.054382 390.117615,681.054382 
	C390.117615,687.430054 390.117615,693.325562 390.117615,699.628662 
	C394.909088,699.628662 399.503235,699.628662 404.384949,699.628662 
	C404.384949,702.418579 404.384949,704.807678 404.384949,707.621033 
	C399.643860,707.621033 395.057709,707.621033 389.858185,707.621033 
	C389.858185,714.442688 389.858185,720.862915 389.858185,727.753174 
z"/>
<path fill="#F8F8F8" opacity="1.000000" stroke="none" 
	d="
M568.439331,673.373901 
	C577.946411,673.093445 587.072144,673.093445 596.460571,673.093445 
	C596.460571,675.827271 596.460571,678.255981 596.460571,681.174438 
	C593.378784,681.174438 590.297119,681.174438 586.929321,681.174438 
	C586.929321,698.611877 586.929321,715.568542 586.929321,732.964478 
	C583.957397,732.964478 581.254272,732.964478 578.067993,732.964478 
	C578.067993,716.052368 578.067993,698.994751 578.067993,681.465698 
	C574.538452,681.465698 571.459595,681.465698 568.057983,681.465698 
	C568.057983,678.547791 568.057983,676.101013 568.439331,673.373901 
z"/>
<path fill="#FCFCFC" opacity="1.000000" stroke="none" 
	d="
M758.659790,696.015381 
	C758.659729,688.221008 758.659729,680.923523 758.659729,673.323120 
	C761.469971,673.323120 764.032166,673.323120 767.159302,673.323120 
	C767.159302,690.211548 767.159302,707.222839 767.159302,724.677124 
	C773.098511,724.677124 778.505554,724.677124 784.210938,724.677124 
	C784.210938,727.686401 784.210938,730.250305 784.210938,733.101562 
	C775.915527,733.101562 767.665100,733.101562 758.659790,733.101562 
	C758.659790,720.922424 758.659790,708.717407 758.659790,696.015381 
z"/>
<path fill="#FDFDFD" opacity="1.000000" stroke="none" 
	d="
M832.997925,733.354858 
	C828.375305,733.354919 824.251709,733.354919 819.532654,733.354919 
	C819.532654,723.079834 819.532654,713.176147 819.532654,703.272461 
	C819.532654,693.338684 819.532654,683.404907 819.532654,673.248291 
	C822.504639,673.248291 825.090088,673.248291 828.194580,673.248291 
	C828.194580,690.358337 828.194580,707.370667 828.194580,724.839478 
	C834.098083,724.839478 839.505615,724.839478 845.139038,724.839478 
	C845.139038,727.720825 845.139038,730.148499 845.139038,733.354858 
	C841.315735,733.354858 837.406372,733.354858 832.997925,733.354858 
z"/>
<path fill="#070707" opacity="1.000000" stroke="none" 
	d="
M425.785767,490.871826 
	C405.656067,491.293396 385.254517,491.384644 364.394012,491.350281 
	C365.117920,490.816681 366.299530,490.057617 367.483917,490.053253 
	C386.199402,489.984619 404.915283,490.007782 423.631012,490.040863 
	C424.258942,490.041962 424.886322,490.367340 425.785767,490.871826 
z"/>
<path fill="#070707" opacity="1.000000" stroke="none" 
	d="
M625.790894,490.882843 
	C606.660217,491.297119 587.258484,491.379700 567.396423,491.343384 
	C568.117554,490.816711 569.297485,490.058777 570.480652,490.053772 
	C588.034485,489.979675 605.588867,489.998260 623.143005,490.030457 
	C623.935608,490.031891 624.727539,490.369873 625.790894,490.882843 
z"/>
<path fill="#070707" opacity="1.000000" stroke="none" 
	d="
M632.840942,491.093262 
	C632.750122,491.332489 632.586060,491.383179 632.187378,491.327271 
	C632.224487,491.115295 632.496094,491.009979 632.840942,491.093262 
z"/>
<path fill="#070707" opacity="1.000000" stroke="none" 
	d="
M429.942047,491.041077 
	C429.868561,491.301270 429.686066,491.378204 429.226746,491.347290 
	C429.244324,491.112274 429.538666,490.985077 429.942047,491.041077 
z"/>
<path fill="#1F1F1F" opacity="1.000000" stroke="none" 
	d="
M648.343872,707.801270 
	C648.997498,710.202759 649.679260,712.277466 649.756958,714.374695 
	C650.070984,722.851440 647.909485,724.954224 639.122314,724.751953 
	C639.122314,718.432556 639.122314,712.102417 639.122314,704.677429 
	C642.436096,705.714355 645.265259,706.599609 648.343872,707.801270 
z"/>
<path fill="#1F1F1F" opacity="1.000000" stroke="none" 
	d="
M643.495728,697.855591 
	C641.793579,697.874634 640.517761,697.874634 639.021606,697.874634 
	C639.021606,692.191101 639.021606,686.954956 639.021606,681.744263 
	C646.206848,680.946350 648.524231,682.124268 649.546265,686.952148 
	C650.731079,692.549011 648.909058,696.075134 643.495728,697.855591 
z"/>
<path fill="#181818" opacity="1.000000" stroke="none" 
	d="
M515.933044,720.389038 
	C515.872864,709.474731 515.913513,699.001587 515.815613,688.529663 
	C515.777588,684.460388 517.094421,681.488586 521.548767,681.434753 
	C526.003418,681.380859 527.448425,684.352661 527.434448,688.390015 
	C527.399963,698.363892 527.415894,708.337891 527.399902,718.311890 
	C527.394653,721.561890 526.554932,724.385193 522.849731,725.001404 
	C519.496094,725.559143 516.966980,724.364563 515.933044,720.389038 
z"/>
<path fill="#1F1F1F" opacity="1.000000" stroke="none" 
	d="
M457.611877,724.983765 
	C452.334961,725.561462 450.069977,723.194824 450.059357,718.464844 
	C450.037018,708.507507 450.072479,698.549927 450.045227,688.592590 
	C450.034332,684.620483 451.364563,681.668640 455.763672,681.333923 
	C459.562836,681.044983 461.763550,683.801514 461.782623,688.689270 
	C461.820831,698.480469 462.033783,708.281860 461.627045,718.056213 
	C461.530182,720.384521 459.277435,722.623169 457.611877,724.983765 
z"/>
<path fill="#1F1F1F" opacity="1.000000" stroke="none" 
	d="
M710.452087,704.444580 
	C710.972656,707.108154 711.395874,709.357178 711.879333,711.926270 
	C709.079651,711.926270 706.534973,711.926270 703.616272,711.926270 
	C704.856445,705.359924 706.043457,699.074829 707.230530,692.789795 
	C707.531494,692.721558 707.832520,692.653320 708.133484,692.585083 
	C708.873901,696.400085 709.614319,700.215027 710.452087,704.444580 
z"/>
</svg>